<svg width="20" height="18" viewBox="0 0 20 18" fill="none" xmlns="http://www.w3.org/2000/svg">
<path d="M17.6923 14.8696H2.30769C2.11538 14.8696 1.9391 15.0265 1.77885 15.3404C1.61859 15.6542 1.53846 16.019 1.53846 16.4348C1.53846 16.8505 1.61859 17.2154 1.77885 17.5292C1.9391 17.8431 2.11538 18 2.30769 18H17.6923C17.8846 18 18.0609 17.8431 18.2212 17.5292C18.3814 17.2154 18.4615 16.8505 18.4615 16.4348C18.4615 16.019 18.3814 15.6542 18.2212 15.3404C18.0609 15.0265 17.8846 14.8696 17.6923 14.8696ZM1.53846 1.56522C1.11378 1.56522 0.751202 1.71807 0.450721 2.02378C0.15024 2.32948 0 2.69837 0 3.13043C0 3.5625 0.15024 3.93138 0.450721 4.23709C0.751202 4.5428 1.11378 4.69565 1.53846 4.69565L2.5 13.2921H17.5L18.4615 4.69565C18.8862 4.69565 19.2488 4.5428 19.5493 4.23709C19.8498 3.93138 20 3.5625 20 3.13043C20 2.69837 19.8498 2.32948 19.5493 2.02378C19.2488 1.71807 18.8862 1.56522 18.4615 1.56522C18.0369 1.56522 17.6743 1.71807 17.3738 2.02378C17.0733 2.32948 16.9231 2.69837 16.9231 3.13043C16.9231 3.58696 17.0873 3.97011 17.4159 4.27989C16.1899 5.77174 15.3606 6.73573 14.9279 7.17187C14.4952 7.60802 14.1346 7.82609 13.8462 7.82609C13.5737 7.82609 13.2412 7.55503 12.8486 7.01291C12.4559 6.47079 11.7748 5.36005 10.8053 3.68071C11.0296 3.54212 11.2079 3.35462 11.3401 3.11821C11.4724 2.88179 11.5385 2.625 11.5385 2.34783C11.5385 1.91576 11.3882 1.54687 11.0877 1.24117C10.7873 0.935461 10.4247 0.782608 10 0.782608C9.57532 0.782608 9.21274 0.935461 8.91226 1.24117C8.61178 1.54687 8.46154 1.91576 8.46154 2.34783C8.46154 2.625 8.52764 2.88179 8.65986 3.11821C8.79207 3.35462 8.97035 3.54212 9.19471 3.68071C8.22516 5.36005 7.54407 6.47079 7.15144 7.01291C6.75881 7.55503 6.42628 7.82609 6.15385 7.82609C5.86538 7.82609 5.50481 7.60802 5.07212 7.17187C4.63942 6.73573 3.8101 5.77174 2.58413 4.27989C2.91266 3.97011 3.07692 3.58696 3.07692 3.13043C3.07692 2.69837 2.92668 2.32948 2.6262 2.02378C2.32572 1.71807 1.96314 1.56522 1.53846 1.56522Z" fill="#176091"/>
</svg>
