<svg width="68" height="68" viewBox="0 0 68 68" fill="none" xmlns="http://www.w3.org/2000/svg">
<g filter="url(#filter0_d)">
<rect x="14" y="11" width="40" height="40" rx="20" fill="#176091"/>
<path d="M33.9968 34.1746C29.6838 34.1746 25.9998 34.8546 25.9998 37.5746C25.9998 40.2956 29.6608 40.9996 33.9968 40.9996C38.3098 40.9996 41.9938 40.3206 41.9938 37.5996C41.9938 34.8786 38.3338 34.1746 33.9968 34.1746Z" fill="white"/>
<path opacity="0.4" d="M33.9968 31.5837C36.9348 31.5837 39.2888 29.2287 39.2888 26.2917C39.2888 23.3547 36.9348 20.9997 33.9968 20.9997C31.0598 20.9997 28.7048 23.3547 28.7048 26.2917C28.7048 29.2287 31.0598 31.5837 33.9968 31.5837Z" fill="white"/>
</g>
<defs>
<filter id="filter0_d" x="0" y="0" width="68" height="68" filterUnits="userSpaceOnUse" color-interpolation-filters="sRGB">
<feFlood flood-opacity="0" result="BackgroundImageFix"/>
<feColorMatrix in="SourceAlpha" type="matrix" values="0 0 0 0 0 0 0 0 0 0 0 0 0 0 0 0 0 0 127 0" result="hardAlpha"/>
<feOffset dy="3"/>
<feGaussianBlur stdDeviation="7"/>
<feColorMatrix type="matrix" values="0 0 0 0 0.371875 0 0 0 0 0.433854 0 0 0 0 0.991667 0 0 0 0.24 0"/>
<feBlend mode="normal" in2="BackgroundImageFix" result="effect1_dropShadow"/>
<feBlend mode="normal" in="SourceGraphic" in2="effect1_dropShadow" result="shape"/>
</filter>
</defs>
</svg>
