<svg width="25" height="32" xmlns="http://www.w3.org/2000/svg">

 <g>
  <title>background</title>
  <rect fill="none" id="canvas_background" height="34" width="27" y="-1" x="-1"/>
 </g>
 <g>
  <title>Layer 1</title>
  <rect x="-7.401084" y="0" id="svg_1" width="32" height="32" fill="none"/>
  <path fill="#ffffff" id="svg_2" d="m8.598916,8c2.209,0 4,-1.791 4,-4s-1.791,-4 -4,-4s-4,1.791 -4,4s1.791,4 4,4zm8,6.059c0,-1.238 0,-2.059 0,-2.059s0,-2 -2,-2c-1,0 -12,0 -12,0s-2,0 -2,2l0,14c0,2 2,2 2,2l0,4l12,0l0,-0.059c0.329,0.037 0.661,0.059 1,0.059c4.971,-0.002 8.998,-4.029 9,-9c-0.002,-4.634 -3.501,-8.444 -8,-8.941zm-1,15.824c-3.801,-0.009 -6.876,-3.084 -6.884,-6.883c0.008,-3.801 3.083,-6.876 6.884,-6.885c3.799,0.009 6.874,3.084 6.883,6.885c-0.009,3.799 -3.084,6.874 -6.883,6.883z"/>
  <path fill="#ffffff" id="svg_3" d="m20.598916,24l0,-2.001l-1.663,0c-0.063,-0.212 -0.145,-0.413 -0.245,-0.606l1.187,-1.187l-1.416,-1.415l-1.165,1.166c-0.22,-0.123 -0.452,-0.221 -0.697,-0.294l0,-1.663l-2,0l0,1.662c-0.229,0.068 -0.446,0.158 -0.652,0.27l-1.141,-1.14l-1.415,1.415l1.14,1.14c-0.112,0.207 -0.202,0.424 -0.271,0.653l-1.662,0l0,2l1.662,0c0.073,0.246 0.172,0.479 0.295,0.698l-1.165,1.163l1.413,1.416l1.188,-1.187c0.192,0.101 0.394,0.182 0.605,0.245l0,1.665l2.002,0l0,-1.665c0.229,-0.068 0.445,-0.158 0.651,-0.27l1.212,1.212l1.414,-1.416l-1.212,-1.21c0.111,-0.206 0.201,-0.423 0.27,-0.651l1.665,0zm-5.001,0.499c-0.829,-0.002 -1.498,-0.671 -1.501,-1.5c0.003,-0.829 0.672,-1.498 1.501,-1.501c0.829,0.003 1.498,0.672 1.5,1.501c-0.002,0.829 -0.671,1.498 -1.5,1.5z"/>
 </g>
</svg>