<svg width="24" height="24" xmlns="http://www.w3.org/2000/svg">
 <g>
  <title>background</title>
  <rect x="-1" y="-1" width="9.999883" height="9.999883" id="canvas_background" fill="none"/>
 </g>

 <g>
  <title>Layer 1</title>
  <g id="svg_1">
   <path stroke="#000000" d="m10,8.71015c0,-1.7 1.3,-3 3,-3s3,1.3 3,3c0,1.7 -1.3,3 -3,3s-3,-1.3 -3,-3zm3,5c-4.6,0 -6,3.3 -6,3.3l0,1.7l12,0l0,-1.7c0,0 -1.4,-3.3 -6,-3.3z" id="svg_2" fill="#000000"/>
  </g>
  <g id="svg_3">
   <g id="svg_4">
    <circle cx="19.5" cy="8.210146" r="2.5" id="svg_5" stroke="#000000" fill="#000000"/>
   </g>
   <g id="svg_6">
    <path d="m19.5,12.71015c-1.2,0 -2.1,0.3 -2.8,0.8c2.3,1.1 3.2,3 3.2,3.2l0,0.1l4.1,0l0,-1.3c0,-0.1 -1.1,-2.8 -4.5,-2.8z" id="svg_7" stroke="#000000" fill="#000000"/>
   </g>
  </g>
  <line fill="none" stroke="#000000" stroke-miterlimit="10" stroke-width="2" x1="5" x2="5" y1="7.710146" y2="15.710146" id="svg_8"/>
  <line fill="none" stroke="#000000" stroke-miterlimit="10" stroke-width="2" x1="9" x2="1" y1="11.710146" y2="11.710146" id="svg_9"/>
 </g>
</svg>