<?xml version="1.0" ?><svg baseProfile="basic" id="Layer_1" version="1.1" viewBox="0 0 160 240" xml:space="preserve" xmlns="http://www.w3.org/2000/svg" xmlns:xlink="http://www.w3.org/1999/xlink"><g><path d="M57.4,230.4c9.3,4.6,20.8,1.4,31.7-3.5s26-13.7,23.2-17c-2.7-3.3-31.2,1.7-41,5.6   C61.6,219.4,49.5,226.5,57.4,230.4z" opacity="0.2"/><path d="M60.7,113.3c0,0-1.2,10.2,1,13.8c2.2,3.7,5.8,3.7,5.8,3.7L63.3,154c0,0,14,5.5,18.8,7.8   c4.8,2.3,11.4,7.1,12,8.1c0.6,1-2.5,6.1-4,8c-1.5,1.9-2.4,1-3.5,0.6c-2.5-0.9-13.2-3.5-18.7-5.7c-5.5-2.3-11.3-3.1-15.3-3.6   s-6.7-3-6.9-10.2c-0.2-7.1,0.6-26.6,2.4-34.6c1-4.3,3-16.2,3-16.2L60.7,113.3z" fill="#28896D"/><path d="M60.7,113.3c0,0-1.2,10.2,1,13.8c2.2,3.7,5.8,3.7,5.8,3.7L63.3,154c0,0,14,5.5,18.8,7.8   c4.8,2.3,11.4,7.1,12,8.1c0.6,1-2.5,6.1-4,8c-1.5,1.9-2.4,1-3.5,0.6c-2.5-0.9-13.2-3.5-18.7-5.7c-5.5-2.3-11.3-3.1-15.3-3.6   s-6.7-3-6.9-10.2c-0.2-7.1,0.6-26.6,2.4-34.6c1-4.3,3-16.2,3-16.2L60.7,113.3z" opacity="0.2"/><path d="M79.7,43c0,0,3.9,0.3,5.9,5.2c2,4.9-2.6,15.6-2.6,15.6s-9.2-11-8.1-14.1S79.7,43,79.7,43z" fill="#762C07"/><path d="M90.3,166.3c1.7,0.9,8.4,3,8.7,4.6c0.2,1.6-1.6,7.5-2.2,8.4c-0.6,1-2,0.1-2.1,2.2c-0.1,2.2-0.3,5.1-1,6.6   c-0.6,1.5-4.8,7.1-5.7,7.1s-0.8-9.6-1.1-11.4s-0.9-3.2-1.9-5.6C88.5,174.2,90.3,166.3,90.3,166.3z" fill="#825012"/><path d="M97.1,169.2c-0.5,4.1-1.1,7.8-2.3,9.8c-1.2,2.1-1.4,6.1-1.7,7.6s-3.7,5.8-5.1,6.9c-0.2,0.1-0.4,0.4-0.5,0.8   c0.1,0.6,0.3,1,0.5,1c1,0,5.1-5.6,5.7-7.1c0.6-1.5,0.9-4.4,1-6.6c0.1-2.2,1.4-1.3,2.1-2.2c0.6-1,2.4-6.8,2.2-8.4   C98.9,170.4,98.1,169.8,97.1,169.2z" opacity="0.5"/><path d="M48,79c0,0-6.7,7.4-8.7,8.9c-1.9,1.5-3,2.7-3,2.7s-3.8-1.8-5.8-1c-2.1,0.9-5.2,3.5-4.9,4.4   c0.4,1.2,3.9-0.6,3.9-0.6s-2.2,2.9-2.5,4.1c-0.3,1.2-1.9,4.7-1.4,6.1c0.5,1.4,2.8,3.1,3.9,2.2c1.1-1,5.7-3.8,7.2-5.4   s0.9-3.5,1.8-4.1c1-0.6,11.6-7.1,12.6-7.9c1-0.8,3.7-6.6,3.7-6.6L48,79z" fill="#FBD7C7"/><path d="M59.6,50.6c-2.1,0.6-5.6,3.5-5.7,6.2c-0.1,2.7,0.8,5.9-0.4,8.7c-1.2,2.7-5.7,9.8-6.1,12.6   c-0.4,2.7,0.5,4.3,1.5,6c1,1.7,3.4,4.5,3.1,8c-0.3,3.5-0.4,13.8-0.1,15.4c0.4,1.6,12.8,3.5,17.1,2.3c4.3-1.2,11.1-4.8,11.1-4.8   s0.1-9.2,1.4-13.1c1.2-4,2.1-6,2.1-6s6.6-18.9,3.8-21.6c-2.7-2.7-3.5-3.7-5.3-5.6c-1.7-1.9-3.6-4.7-8.1-6.4S59.6,50.6,59.6,50.6z" fill="#FF9900"/><path d="M59.3,52l3.6,1.4c0,0-4.7,10.7-5.6,13.4c-1,2.7-6.2,10.9-6.2,10.9l13.7,4.5c0,0,4.9-10.8,7.1-14.2   C75.7,62.3,82,57.8,82,57.8l2.5,3c0,0-6,4-8.4,7.7c-4,6.2-6,11.9-6.4,15.8c-0.4,3.9-0.2,12.7,0.8,14.3c1,1.6,11.3,3.2,11.3,3.2   s4.8,8.5,6.8,15.5c2.1,6.9-0.3,23.6-1.8,30.8c-1.5,7.2-3.2,14.2-2.9,17.7c0.3,3.6,5.1,24.2,5.6,32.6s-1.2,18.2-2.2,19   c-1,0.9-7.4-0.5-9-0.4c-1.6,0.1-3.1-0.1-3.2-1.1c-0.1-1,0.9-10.4,0.5-16.3c-0.3-6-4.2-15.9-5.7-20.7c-1.5-4.8-4.3-18.7-4.1-26.6   c0.2-7.9,0-21.7,0-21.7s-4.4-1.1-5.8-6.7c-1.4-5.6-2.7-9.7-3.7-10.8c-1-1.1-5.9-1.9-5.3-4.4c0.4-1.5-0.1-16.6-0.4-18.6   c-0.3-2.1-4.1-9.2-3.9-11.9c0.2-3.7,6.4-11.3,7.8-15.1S59.3,52,59.3,52z" fill="#28896D"/><path d="M56.6,36.4c-1.2,3.4-1.1,10.8,0.4,14.9c1.5,4.2,3.5,6.3,4.7,6.4s2.5-0.5,2.5-0.5s0.6,1.1,0.5,2.6   c-0.2,3.1-1,7.8-0.5,8.2c0.6,0.6,8.2-4.3,10.6-6.9c1.9-2,3.2-5.4,3-5.8c-0.2-0.4-2.3-3.5-2.2-4.8c0.1-1.3,2.4-4.1,2.4-5.3   s0.9-12.1-7.2-13.6S58.1,32.2,56.6,36.4z" fill="#FBD7C7"/><path d="M55.4,38.7c0.2,1.3,1.6,1.4,4.3,2.2c2.7,0.9,5.7,5,7.8,5.3s4.8-0.7,6.7-1.4c1.9-0.7,3,0.2,3.3,0.9   c0.3,0.8,3.5-6.9,0.8-12.1c-3-5.6-10.7-8.2-17.1-4.3C55.4,33,55.3,37.6,55.4,38.7z" fill="#762C07"/><path d="M79.2,41.6c1.4,0.3,1.7,2,0.8,3.7c-0.9,1.7-1.2,2.6-2.2,2.2c-1-0.4-0.1-1.4,0.3-3.2   C78.5,42.6,78.4,41.5,79.2,41.6z" fill="#FF9900"/><path d="M74.2,212.6c-1.3,7.1-9.1,10-10.3,10.8c-1.2,0.9-4.1,2.8-3.2,5.5c0.9,2.7,8.4,3.1,11.6,2.3   c2.3-0.6,6.8-4.3,8-4.8c1.2-0.4,1.4,0.2,1.4,0.2s6.3-2,6.8-3c0.5-1,1.1-10.2,1.1-10.2l-7.5,0.5L74.2,212.6z" fill="#825012"/><path d="M82.8,224c-3,0.9-8.4,4.7-11.9,5.6c-2.8,0.7-8.6-0.1-10.3-2.5c-0.2,0.6-0.2,1.2,0,1.9   c0.9,2.7,8.4,3.1,11.6,2.3c2.3-0.6,6.8-4.3,8-4.8c1.2-0.4,1.4,0.2,1.4,0.2s6.3-2,6.8-3c0.1-0.2,0.3-1,0.4-2   C86.5,222.7,84.1,223.6,82.8,224z" opacity="0.5"/><g><path d="M77.7,93.5c0-6.7-11.4-12.1-25.5-12.1s-25.5,5.4-25.5,12.1c0,4.8,5.7,28,5.7,30.2c0,5.2,8.9,9.4,19.8,9.4    s19.8-4.2,19.8-9.4C72,121.5,77.7,98.2,77.7,93.5z" fill="#825012"/><ellipse cx="52.2" cy="93.9" opacity="0.2" rx="23.3" ry="11"/><path d="M74.8,96.7c-0.1-4-3.4-7.1-7.4-7.1c-0.3,0-0.7,0-1,0.1c-0.6-3.4-3.6-6.1-7.3-6.1c-2.8,0-5.2,1.5-6.5,3.8    c-1.3-2.1-3.6-3.5-6.3-3.5c-3.4,0-6.2,2.3-7.1,5.4c-0.6-0.1-1.2-0.2-1.8-0.2c-4.1,0-7.4,3.3-7.4,7.4c0,0.3,0,0.7,0.1,1    c1.7,2.5,5.3,4.6,9.9,5.9c0.1,0,0.4,0,0.5,0.1c3.4,0.9,7.4,1.5,11.7,1.5c4,0,7.9-0.5,11.2-1.3c0.1-0.1,0.4-0.2,0.5-0.1    C69.2,102,73.2,99.6,74.8,96.7z" fill="#CC291F"/><circle cx="45.4" cy="96.8" fill="#FFFFFF" opacity="0.2" r="3.1"/><circle cx="58.2" cy="87.8" fill="#FFFFFF" opacity="0.2" r="3.1"/><circle cx="55.3" cy="96.7" fill="#FFFFFF" opacity="0.2" r="3.1"/><circle cx="66" cy="95.1" fill="#FFFFFF" opacity="0.2" r="3.1"/><circle cx="46.1" cy="88.7" fill="#FFFFFF" opacity="0.2" r="3.1"/><circle cx="35.2" cy="94.5" fill="#FFFFFF" opacity="0.2" r="3.1"/></g><path d="M78.4,100.5c0,0-5.2,4.1-6.8,5.1c-1.6,1.1-3,3-4.8,3.1c-1.7,0.2-2.8-2.7-4.7-2.5c-1.9,0.1-5.5-0.5-6.9-0.5   c-1.2,0-3.4,0.2-3,1c0.1,0.1,0.2,0.3,0.4,0.5c1.6,1.2,3.5,1.2,4.4,1.4c1,0.2,2.1,0.5,2.1,0.5s-2.9,1-5.3,1.8   c-2.4,0.8-6.7,0.1-7.8,0.3c-0.8,0.2-1.5,3.6,1.2,5c2.7,1.4,9,1.2,10.8,0.9c2.6-0.4,7.7-1.4,9.1-2.2c1.5-0.8,5.8-2.9,8-3.8   c2.2-1,9.8-4.9,9.8-4.9L78.4,100.5z" fill="#FBD7C7"/><path d="M79.5,73.7c0.4,3,3.9,11.5,5,13.7c1.2,2.2,2.8,6,2.8,6s-4.6,2.2-6.3,3.6c-1.7,1.4-3.8,3.5-3.8,3.5   s1.8,3.3,2.7,5c0.9,1.7,2.2,2.5,2.2,2.5s8.1-4,11.3-6.6c3.2-2.7,5.1-3.8,5.1-6.6c0-2.8-3.5-9.9-4.3-13c-0.8-3.1-0.9-10.1-3-14   c-1.6-3-3.1-4.8-5.5-5.3C82.4,61.8,79.5,73.7,79.5,73.7z" fill="#FF9900"/></g></svg>