<svg width="14.2" height="10.1" xmlns="http://www.w3.org/2000/svg">
 <title/>

 <g>
  <title>background</title>
  <rect x="-1" y="-1" width="4.708257" height="3.926296" id="canvas_background" fill="none"/>
 </g>
 <g>
  <title>Layer 1</title>
  <path d="m8.831866,5.561088l4.9498,4.24268c-0.18008,0.16824 -0.42226,0.27278 -0.6886,0.27278l-11.98632,0c-0.26765,0 -0.5106,-0.10294 -0.69077,-0.27092l4.95197,-4.24454l1.73196,1.51546l1.73196,-1.51546zm-1.73196,0.51546l-6.68176,-5.72722c0.18008,-0.16824 0.42226,-0.27278 0.6886,-0.27278l11.98632,0c0.26765,0 0.5106,0.10294 0.69077,0.27092l-6.68393,5.72908zm7,3.18561l-4.83264,-4.10675l4.83264,-4.20344l0,8.31019l0,0zm-14,0l0,-8.30746l4.83264,4.20071l-4.83264,4.10675l0,0zm0,0" id="Shape" fill="#121212"/>
 </g>
</svg>