<?xml version="1.0" ?><svg baseProfile="basic" id="Layer_1" version="1.1" viewBox="0 0 160 240" xml:space="preserve" xmlns="http://www.w3.org/2000/svg" xmlns:xlink="http://www.w3.org/1999/xlink"><g><path d="M63.8,26.3c0-0.8,3.9-0.3,6.1-0.4c2.7-0.2,4.6-3.9,6.1-5.5s3.7-5.9,7.8-5.4s7.3,5.4,10,6.9   c2.7,1.5,3.5,2.9,3.3,5.4s-0.4,5.5-0.4,5.5s-3.3-5.3-8.7-4.1C77.5,31.1,63.8,26.3,63.8,26.3z" fill="#825012"/><path d="M49.3,208.6c-17.6,3.2-17.8,14.1,2.5,15.1s52.8,20,62.5,6.3c9.2-13,0.8-22.4-12.6-21.2   S67.8,205.1,49.3,208.6z" opacity="0.2"/><path d="M55.4,204c-2.3,2.1-2.8,4.2-8.1,5.4c-5.4,1.1-8.3,2.7-8.7,6s0.3,5.4,7.1,5.1s15.2-3.5,15.2-3.5l1.2,0.9   c0,0,8.3-1.6,9.3-2.8c1-1.1,0.5-8,0.5-8L55.4,204z" fill="#825012"/><path d="M62.1,217.7c0,0,8.3-1.6,9.3-2.8c0.4-0.5,0.5-1.9,0.6-3.5c-0.5,0.3-1.1,0.6-1.8,1c-3,1.5-17.4,5.4-24.4,6.1   c-3.5,0.3-5.8-0.5-7.2-1.4c0.2,2.2,1.7,3.5,7.1,3.2c6.8-0.4,15.2-3.5,15.2-3.5L62.1,217.7z" opacity="0.5"/><path d="M103.8,211.4c-0.7,4.6-3.2,7.9-3.8,12.6c-0.7,4.7,0.6,7.8,4,8.2s8.1-0.8,9.7-4.4s1.4-7.6,2.1-11.3   c0.7-3.6,1.1-6.5,1.1-6.5L103.8,211.4z" fill="#825012"/><path d="M113.7,227.9c1.5-3.6,1.4-7.6,2.1-11.3c0.6-3.4,1.1-6.1,1.1-6.5l-0.7,0.5c0,0-1,6.8-2.1,12.5   c-1.1,5.7-4.9,7.2-8.5,7.4c-3,0.2-5.1-0.8-5.8-4.8c-0.2,3.7,1.2,6.2,4.2,6.5C107.4,232.6,112.1,231.5,113.7,227.9z" opacity="0.5"/><path d="M79.4,46.2c-4-0.3-5.4-1-8.9,0.5c-3.4,1.4-5.4,4.8-7.5,12.2s-3.3,13.4-7.3,19.2S45.6,95.6,45.4,95.9   c-0.5,0.9-1.1,1.9,0.5,4.2c2.2,3.1,5.2,2,5.2,2s4.6-6.9,7-9.1s6.1-7.4,7.2-9.3c1.1-1.9,2.2-4.6,2.2-4.6s1.3,7.7,1.1,13.2   c-0.3,5.4-1.1,11.5-1.1,11.5l37.5-3c0,0-2.4-10.7-2.4-20.5s6.3-18.1,5.2-21.1c-1.1-3.1-3.2-6.2-9.1-8.6S79.4,46.2,79.4,46.2z" fill="#CC291F"/><path d="M74.2,44.7c0,0-2.9,9-3.8,13c-1,4-2.2,14.2-2.2,14.2l-1.7-0.1c0,0,1.4,15.9,1.2,17.4s-0.5,16.9-3.4,26.9   c-3,9.9-7.9,25.4-7.8,34c0.1,8.6,0.7,17.4-0.5,30.9s-2.3,23.2-2.2,24.2c0.1,1,4.6,4.7,10.4,5.4c5.8,0.8,9.4-0.4,9.8-2.8   s2.7-18.6,2.7-23.9s-0.4-20.5,0.4-24.4s6.7-23.9,6.7-23.9s2.6,20.4,4,26.9c1.4,6.5,5.8,10.6,6.9,15.6c1.1,5,5.4,28.7,5.7,31.1   s1.2,3.7,4.9,4.7s12.7,0,13.9-2.3c1.1-2.3,0.3-10.8-1.1-16.4s-4.9-21.4-6.7-26.2s-2.8-7.9-2.8-12.5c0-4.6-0.9-26.2-1-34.1   c-0.1-7.9,0-15.2-1.4-20.3c-1.4-5.1-2.9-11.1-2.9-11.1l-11.3-1.1l-1.9-16.1l-2.2-0.3c0,0,1.9-9.6,4.6-13.7c4.6-7.4,8.8-8.2,8.8-8.2   L98,50.2c0,0-4.1,2.1-7.1,6.5c-4.8,7-6.7,16.5-6.7,16.5l-12.4-1.1c0,0,1.2-11.4,2.7-17.2s4.1-10.5,4.1-10.5L74.2,44.7z" fill="#06547A"/><path d="M45.1,97.1c0,0-1,2.7-1,3.9s2.6,7.5,4.4,9.6s5,3.2,5.7,2.9c0.8-0.4-3.1-5.4-3.2-6.9   c-0.1-1.5-1.5-4.7-1.5-4.7s1.8-0.5,1.9-1.3c0.1-0.9-0.5-1.7-1.2-2.5c-0.6-0.7-1.9-1.8-2.8-2C46.6,95.9,45.1,97.1,45.1,97.1z" fill="#FBD7C7"/><path d="M90.7,90.4c0-5.9-10.1-10.7-22.5-10.7s-22.5,4.8-22.5,10.7c0,4.2,5,24.7,5,26.7c0,4.6,7.8,8.3,17.5,8.3   s17.5-3.7,17.5-8.3C85.6,115.1,90.7,94.6,90.7,90.4z" fill="#825012"/><ellipse cx="68.1" cy="90.8" opacity="0.2" rx="20.6" ry="9.7"/><path d="M52.5,111.1c0.5,1,5.5,3.5,8.8,3.5c3.2,0,14-2.4,14.2-2.8c0.2-0.4-0.3-6.1-1.4-6.1   c-1.1-0.1-2.6,0.4-2.6,0.4s-1.8-2.5-3.9-2.6s-7.6-1.3-8.7-0.5c-1.1,0.8,0.8,2.2,2,2.4s3.8,0.8,3,1.3c-0.8,0.6-2.3,1.9-4.1,1.6   c-1.7-0.3-6.5-1-7.1-0.5S51.8,109.6,52.5,111.1z" fill="#FBD7C7"/><path d="M71,105.1c-0.6-0.3,6.4-3.1,10.2-4.7c3.6-1.5,9.3-4.2,9.7-5.6s2-16.7,1.5-20.4c-0.5-3.7-3.4-8.8-0.4-13.1   c3.1-4.3,11.2-9.9,14.7-3.8s1.9,10.7,0.5,16.8c-1.4,6.1-3.2,19.4-3.3,21.8c-0.1,2.4-0.3,5-6.2,8c-6,3.1-18,7.8-20.6,8.5   c-2.7,0.8-4.1,1.1-4.3-0.1C72.6,111.3,73.4,106.5,71,105.1z" fill="#CC291F"/><path d="M88.1,93.2c-0.1-3.5-3-6.3-6.5-6.3c-0.3,0-0.6,0-0.9,0.1c-0.6-3-3.2-5.4-6.4-5.4c-2.5,0-4.6,1.4-5.7,3.4   c-1.2-1.9-3.2-3.1-5.5-3.1c-3,0-5.5,2-6.3,4.7c-0.5-0.1-1.1-0.2-1.6-0.2c-3.6,0-6.5,2.9-6.5,6.5c0,0.3,0,0.6,0.1,0.9   c1.5,2.2,4.7,4,8.8,5.2c0.1,0,0.4,0,0.4,0.1c3,0.8,6.6,1.3,10.3,1.3c3.6,0,6.9-0.4,9.9-1.2c0.1-0.1,0.3-0.2,0.4-0.1   C83.2,97.9,86.7,95.8,88.1,93.2z" fill="#FFCC00"/><path d="M45.1,97.1c0,0-1,2.7-1,3.9s2.6,7.5,4.4,9.6s4,2.5,4.7,1.9c1.6-1.5-2.1-4.4-2.7-5.9c-1-2.3-1.5-2.9-1.3-3.3   c0.2-0.4,3.4,1.8,3.7,0.2c0.2-1.4-3.3-3.7-4.8-4.5C46.4,98.3,45.1,97.1,45.1,97.1z" fill="#FBD7C7"/><circle cx="62.1" cy="93.4" fill="#FFFFFF" opacity="0.2" r="2.7"/><circle cx="73.5" cy="85.3" fill="#FFFFFF" opacity="0.2" r="2.7"/><circle cx="70.9" cy="93.3" fill="#FFFFFF" opacity="0.2" r="2.7"/><circle cx="80.3" cy="91.8" fill="#FFFFFF" opacity="0.2" r="2.7"/><circle cx="62.8" cy="86.2" fill="#FFFFFF" opacity="0.2" r="2.7"/><circle cx="53.1" cy="91.3" fill="#FFFFFF" opacity="0.2" r="2.7"/><path d="M63.7,26.1c-1.6,0.6,4.4,11.5,10,13.3c5.6,1.8,20.4,5.3,23.7,5c3.2-0.3,5.5-2.4,4.9-3.6s-0.4-0.1-2.5-3.3   s-1.9-9.2-10.5-9.1s-9.9,0.7-14.3,0S66.1,25.1,63.7,26.1z" fill="#825012"/><path d="M63.7,26.1c-1.6,0.6,4.4,11.5,10,13.3c5.6,1.8,20.4,5.3,23.7,5c3.2-0.3,5.5-2.4,4.9-3.6s-0.4-0.1-2.5-3.3   s-1.9-9.2-10.5-9.1s-9.9,0.7-14.3,0S66.1,25.1,63.7,26.1z" opacity="0.2"/><g><path d="M92.3,42.8c0-1.1,0.3-2.8,0.5-4.8c0,0,0-0.1,0-0.1c0.1-2-1.4-2.7-3-1.8c-1.5,0.9-2.7,4-3.3,4    c-0.8,0-0.4-1.3-1-3c-0.6-1.7-1.4-1.2-2.2-2c-0.8-0.8,0.3-3-0.7-4.3c-1.1-1.3-8.2-0.1-9.5-0.9c-0.2-0.1-0.3-0.3-0.4-0.6    c0,0,0,0,0,0c-1.9,5.9,0.4,20.3,2,21.8c1.7,1.5,4.4,0.9,4.4,0.9s-0.2,9.7-0.3,11.7c-0.1,2,5.8-4.9,8.4-7.3    c2.6-2.4,7.6-7.1,7.6-7.1S92.3,47.1,92.3,42.8z" fill="#FBD7C7"/><path d="M73.1,29.8c1.3,0.8,8.4-0.4,9.5,0.9c1.1,1.3-0.1,3.6,0.7,4.3c0.8,0.8,1.7,0.3,2.2,2c0.6,1.7,0.2,3,1,3    c0.6,0,1.8-3.1,3.3-4c1.5-0.9,3.1-0.2,3,1.8c0,0.1,0,0.1,0,0.1c0,2.1,1.4-2.2,1.5-6.1c0,0-0.1-0.1-0.1-0.1c-1.5-1-2.2-1.8-4.4-2    c-2.2-0.2-3.7-0.7-8.1-0.4c-3.5,0.2-7.2-0.6-9.2-0.7c0,0.2,0.1,0.4,0.1,0.5C72.8,29.4,72.9,29.6,73.1,29.8z" fill="#762C07"/></g></g></svg>