<svg width="34" height="19" xmlns="http://www.w3.org/2000/svg"><g><title>background</title><rect fill="none" id="canvas_background" height="402" width="582" y="-1" x="-1"/></g><g><title>Layer 1</title><path id="svg_1" d="m31.5585,1.28656c0.22239,-0.74162 0,-1.28656 -1.05844,-1.28656l-3.5,0c-0.88993,0 -1.30021,0.47075 -1.52272,0.98985c0,0 -1.77987,4.33838 -4.30129,7.15645c-0.81574,0.81574 -1.18658,1.07529 -1.63155,1.07529c-0.22245,0 -0.55619,-0.25955 -0.55619,-1.0011l0,-6.93393c0,-0.88994 -0.24657,-1.28656 -0.98825,-1.28656l-5.5,0c-0.55613,0 -0.89059,0.41304 -0.89059,0.80449c0,0.84364 1.26065,1.0382 1.39059,3.41136l0,5.15413c0,1.13002 -0.20408,1.3349 -0.64904,1.3349c-1.18652,0 -4.07273,-4.35777 -5.78452,-9.34419c-0.33547,-0.96919 -0.67194,-1.36069 -1.56644,-1.36069l-3.5,0c-1,0 -1.20001,0.47075 -1.20001,0.98985c0,0.92703 1.18658,5.52496 5.5249,11.60606c2.8922,4.15291 6.96711,6.40409 10.67511,6.40409c2.22478,0 2.5,-0.5 2.5,-1.36125l0,-3.13875c0,-1 0.21076,-1.19957 0.91528,-1.19957c0.5191,0 1.40903,0.25955 3.48555,2.26187c2.37309,2.3731 2.76433,3.4377 4.09917,3.4377l3.5,0c1,0 1.5,-0.5 1.21156,-1.48672c-0.31564,-0.98343 -1.44867,-2.41025 -2.95209,-4.10163c-0.8158,-0.96406 -2.03942,-2.00226 -2.41025,-2.52148c-0.5191,-0.66736 -0.37078,-0.96406 0,-1.55729c0,0 4.26425,-6.00697 4.70922,-8.04632z" fill-rule="evenodd" fill="#121212"/></g></svg>