<svg width="1792.0000000000002" height="1792.0000000000002" xmlns="http://www.w3.org/2000/svg">

 <g>
  <title>background</title>
  <rect fill="none" id="canvas_background" height="402" width="582" y="-1" x="-1"/>
 </g>
 <g>
  <title>Layer 1</title>
  <path fill="#ffffff" id="svg_1" d="m1757,1408l35,313q3,28 -16,50q-19,21 -48,21l-1664,0q-29,0 -48,-21q-19,-22 -16,-50l35,-313l1722,0zm-93,-839l86,775l-1708,0l86,-775q3,-24 21,-40.5t43,-16.5l256,0l0,128q0,53 37.5,90.5t90.5,37.5t90.5,-37.5t37.5,-90.5l0,-128l384,0l0,128q0,53 37.5,90.5t90.5,37.5t90.5,-37.5t37.5,-90.5l0,-128l256,0q25,0 43,16.5t21,40.5zm-384,-185l0,256q0,26 -19,45t-45,19t-45,-19t-19,-45l0,-256q0,-106 -75,-181t-181,-75t-181,75t-75,181l0,256q0,26 -19,45t-45,19t-45,-19t-19,-45l0,-256q0,-159 112.5,-271.5t271.5,-112.5t271.5,112.5t112.5,271.5z"/>
 </g>
</svg>