<svg width="64" height="64" xmlns="http://www.w3.org/2000/svg">

 <g>
  <title>background</title>
  <rect fill="none" id="canvas_background" height="402" width="582" y="-1" x="-1"/>
 </g>
 <g>
  <title>Layer 1</title>
  <path id="svg_1" fill="#ffffff" d="m14,58l9.7,0c1.6,0 3.1,0.5 4.3,1.5c2,1.6 4.5,2.5 7,2.5l15,0c3.9,0 7,-3.1 7,-7c0,-0.5 -0.1,-0.9 -0.3,-1.3c1.9,-0.7 3.3,-2.5 3.3,-4.7c0,-1.3 -0.5,-2.4 -1.3,-3.3c1.9,-0.7 3.3,-2.5 3.3,-4.7c0,-1.4 -0.6,-2.7 -1.6,-3.6c1.5,-0.9 2.6,-2.5 2.6,-4.4c0,-2.8 -2.2,-5 -5,-5l-14.7,0l3.3,-13.8c0.3,-1 0.4,-2.1 0.4,-3.2c0,-2.7 -0.9,-5.4 -2.7,-7.5c-0.8,-1 -2.1,-1.4 -3.3,-0.9c-1.2,0.4 -2,1.5 -2,2.8l0,1.6c0,2.4 -0.6,4.7 -1.9,6.7l-4.4,7.3c-0.7,1.2 -1.7,2.2 -2.9,2.9c-1.4,0.9 -2.5,2.1 -3.3,3.4c-1.4,2.4 -3.2,4.5 -5.3,6c-1.5,1.1 -3.3,1.7 -5.2,1.7l-2,0l0,23z"/>
  <path id="svg_2" fill="#ffffff" d="m16.9,58c-1.2,-4.7 -1.9,-9.6 -1.9,-14.7c0,-2.8 0.2,-5.6 0.6,-8.3l-1.6,0l0,23l2.9,0z"/>
  <polygon id="svg_4" points="56.7,53.7 51,52 51,54    " fill="#ffffff"/>
  <polygon id="svg_5" points="58.7,45.7 53,44 53,46    " fill="#ffffff"/>
  <polygon id="svg_6" points="60.4,37.4 53,36 53,38    " fill="#ffffff"/>
  <path id="svg_7" fill="#ffffff" d="m43.7,26.2c-2.1,0.9 -4.3,1.6 -6.7,1.8l0,0l6.3,0l0.4,-1.8z"/>
  <path id="svg_8" fill="#ffffff" d="m13,61l-12,0l0,-28l12,0c1.1,0 2,0.9 2,2l0,24c0,1.1 -0.9,2 -2,2z"/>
  <rect id="svg_9" y="50.5" x="6" width="1" height="3" fill="#ffffff"/>
  <circle id="svg_10" r="2.5" fill="#ffffff" cy="55.5" cx="6.5"/>
 </g>
</svg>