<svg width="24" height="24" xmlns="http://www.w3.org/2000/svg">

 <g>
  <title>background</title>
  <rect fill="none" id="canvas_background" height="26" width="26" y="-1" x="-1"/>
 </g>
 <g>
  <title>Layer 1</title>
  <g id="svg_1">
   <path fill="#ffffff" id="svg_2" d="m10,8.710146c0,-1.7 1.3,-3 3,-3s3,1.3 3,3c0,1.7 -1.3,3 -3,3s-3,-1.3 -3,-3zm3,5c-4.6,0 -6,3.3 -6,3.3l0,1.7l12,0l0,-1.7c0,0 -1.4,-3.3 -6,-3.3z"/>
  </g>
  <g id="svg_3">
   <g id="svg_4">
    <circle fill="#ffffff" stroke="#ffffff" id="svg_5" r="2.5" cy="8.210146" cx="19.5"/>
   </g>
   <g id="svg_6">
    <path fill="#ffffff" stroke="#ffffff" id="svg_7" d="m19.5,12.710146c-1.2,0 -2.1,0.3 -2.8,0.8c2.3,1.1 3.2,3 3.2,3.2l0,0.1l4.1,0l0,-1.3c0,-0.1 -1.1,-2.8 -4.5,-2.8z"/>
   </g>
  </g>
  <line id="svg_8" y2="15.710146" y1="7.710146" x2="5" x1="5" stroke-width="2" stroke-miterlimit="10" stroke="#ffffff" fill="none"/>
  <line id="svg_9" y2="11.710146" y1="11.710146" x2="1" x1="9" stroke-width="2" stroke-miterlimit="10" stroke="#ffffff" fill="none"/>
 </g>
</svg>