<svg width="512" height="512" xmlns="http://www.w3.org/2000/svg">

 <g>
  <title>background</title>
  <rect fill="none" id="canvas_background" height="9.999883" width="9.999883" y="-1" x="-1"/>
 </g>
 <g>
  <title>Layer 1</title>
  <ellipse fill="#ffffff" rx="1.5" id="XMLID_731_" cy="256" cx="256"/>
  <g id="XMLID_578_">
   <path fill="#ffffff" id="XMLID_585_" d="m401.4,6l-290.8,0c-17.1,0 -31,13.9 -31,31l0,438c0,17.1 13.9,31 31,31l290.8,0c17.1,0 31,-13.9 31,-31l0,-438c0,-17.1 -13.9,-31 -31,-31zm21.2,469c0,11.7 -9.5,21.2 -21.2,21.2l-290.8,0c-11.7,0 -21.2,-9.5 -21.2,-21.2l0,-438c0,-11.7 9.5,-21.2 21.2,-21.2l290.8,0c11.7,0 21.2,9.5 21.2,21.2l0,438z"/>
   <path fill="#ffffff" id="XMLID_602_" d="m197.3,55l117.5,0c7.9,0 14.3,-6.4 14.3,-14.3c0,-7.9 -6.4,-14.3 -14.3,-14.3l-117.5,0c-7.9,0 -14.3,6.4 -14.3,14.3c-0.1,7.8 6.4,14.3 14.3,14.3zm0,-18.9l117.5,0c2.5,0 4.5,2 4.5,4.5c0,2.5 -2,4.5 -4.5,4.5l-117.5,0c-2.5,0 -4.5,-2 -4.5,-4.5c-0.1,-2.5 2,-4.5 4.5,-4.5z"/>
   <path fill="#ffffff" id="XMLID_605_" d="m182.2,256.4l147.6,0c5.2,0 9.4,-4.2 9.4,-9.4c0,-29.1 -14.8,-55.5 -39.6,-70.8c-4.3,-2.6 -10,-1.3 -12.7,2.9c-6.9,10.5 -18.4,16.8 -30.9,16.8c-12.5,0 -24,-6.3 -30.9,-16.8c-2.8,-4.2 -8.5,-5.6 -12.7,-2.9c-24.8,15.3 -39.6,41.8 -39.6,70.9c0,5.1 4.2,9.3 9.4,9.3zm34.9,-71.6c8.7,13.1 23.2,20.9 38.9,20.9c15.7,0 30.2,-7.8 38.9,-20.9c21.5,13.4 34.3,36.5 34.5,61.8l-146.8,0c0.2,-25.3 13,-48.3 34.5,-61.8z"/>
   <path fill="#ffffff" id="XMLID_608_" d="m256,188c22.4,0 40.7,-18.3 40.7,-40.7c0,-22.4 -18.3,-40.7 -40.7,-40.7s-40.7,18.3 -40.7,40.7c0,22.5 18.3,40.7 40.7,40.7zm0,-71.6c17,0 30.9,13.9 30.9,30.9c0,17 -13.9,30.9 -30.9,30.9s-30.9,-13.9 -30.9,-30.9c0,-17 13.9,-30.9 30.9,-30.9z"/>
   <path fill="#ffffff" id="XMLID_737_" d="m168.5,284.1l175,0c7.2,0 13,-6.4 13,-14.4l0,-166.7c0,-7.9 -5.9,-14.4 -13,-14.4l-175,0c-7.2,0 -13,6.4 -13,14.4l0,166.8c-0.1,7.9 5.8,14.3 13,14.3zm-3.3,-181.1c0,-2.5 1.5,-4.6 3.2,-4.6l175,0c1.8,0 3.2,2.1 3.2,4.6l0,166.8c0,2.5 -1.5,4.6 -3.2,4.6l-175,0c-1.8,0 -3.2,-2.1 -3.2,-4.6l0,-166.8z"/>
   <path fill="#ffffff" id="XMLID_739_" d="m352,329.8c0,-2.7 -2.2,-4.9 -4.9,-4.9l-182.2,0c-2.7,0 -4.9,2.2 -4.9,4.9s2.2,4.9 4.9,4.9l182.2,0c2.7,0 4.9,-2.2 4.9,-4.9z"/>
   <path fill="#ffffff" id="XMLID_740_" d="m361.3,389.4l-210.6,0c-2.7,0 -4.9,2.2 -4.9,4.9c0,2.7 2.2,4.9 4.9,4.9l210.6,0c2.7,0 4.9,-2.2 4.9,-4.9c0,-2.8 -2.2,-4.9 -4.9,-4.9z"/>
   <path fill="#ffffff" id="XMLID_741_" d="m190.9,357.3c-2.7,0 -4.9,2.2 -4.9,4.9c0,2.7 2.2,4.9 4.9,4.9l130.3,0c2.7,0 4.9,-2.2 4.9,-4.9c0,-2.7 -2.2,-4.9 -4.9,-4.9l-130.3,0z"/>
  </g>
 </g>
</svg>